<?xml version="1.0" encoding="UTF-8"?>
<svg xmlns="http://www.w3.org/2000/svg" xmlns:xlink="http://www.w3.org/1999/xlink" width="256pt" height="256pt" viewBox="0 0 256 256" version="1.1">
<g id="surface1">
<path style="fill:none;stroke-width:1;stroke-linecap:round;stroke-linejoin:round;stroke:rgb(0%,0%,0%);stroke-opacity:1;stroke-miterlimit:4;" d="M 194.203125 459.03125 L 317.796875 459.03125 " transform="matrix(0.5,0,0,0.5,0,0)"/>
<path style=" stroke:none;fill-rule:nonzero;fill:rgb(20.784314%,28.627451%,36.862745%);fill-opacity:1;" d="M 70.621094 0 L 185.378906 0 C 195.128906 0 203.035156 7.90625 203.035156 17.65625 L 203.035156 238.34375 C 203.035156 248.09375 195.128906 256 185.378906 256 L 70.621094 256 C 60.871094 256 52.964844 248.09375 52.964844 238.34375 L 52.964844 17.65625 C 52.964844 7.90625 60.871094 0 70.621094 0 Z M 70.621094 0 "/>
<path style=" stroke:none;fill-rule:nonzero;fill:rgb(56.470588%,72.941176%,88.235294%);fill-opacity:1;" d="M 189.792969 17.65625 L 189.792969 238.34375 C 189.785156 240.78125 187.8125 242.75 185.378906 242.757812 L 70.621094 242.757812 C 68.1875 242.75 66.214844 240.78125 66.207031 238.34375 L 66.207031 17.65625 C 66.214844 15.21875 68.183594 13.25 70.621094 13.242188 L 85.097656 13.242188 C 87.003906 13.253906 88.6875 14.480469 89.289062 16.285156 L 90.660156 20.433594 C 91.867188 24.039062 95.242188 26.472656 99.046875 26.484375 L 156.953125 26.484375 C 160.757812 26.472656 164.128906 24.039062 165.339844 20.433594 L 166.707031 16.285156 C 167.3125 14.480469 168.996094 13.253906 170.902344 13.242188 L 185.378906 13.242188 C 187.8125 13.25 189.785156 15.21875 189.792969 17.65625 Z M 189.792969 17.65625 "/>
<path style=" stroke:none;fill-rule:nonzero;fill:rgb(64.705882%,64.705882%,64.313725%);fill-opacity:1;" d="M 150.070312 17.65625 C 148.894531 17.667969 147.765625 17.203125 146.933594 16.375 C 146.105469 15.546875 145.644531 14.414062 145.65625 13.242188 C 145.671875 12.074219 146.128906 10.953125 146.933594 10.109375 C 148.703125 8.472656 151.433594 8.472656 153.203125 10.109375 C 154.910156 11.847656 154.910156 14.632812 153.203125 16.375 C 152.355469 17.179688 151.238281 17.636719 150.070312 17.65625 Z M 150.070312 17.65625 "/>
<path style=" stroke:none;fill-rule:nonzero;fill:rgb(17.254902%,24.313725%,31.372549%);fill-opacity:1;" d="M 83.863281 28.691406 L 75.035156 28.691406 C 73.816406 28.691406 72.828125 27.703125 72.828125 26.484375 C 72.828125 25.261719 73.816406 24.277344 75.035156 24.277344 L 83.863281 24.277344 C 85.082031 24.277344 86.070312 25.261719 86.070312 26.484375 C 86.070312 27.703125 85.082031 28.691406 83.863281 28.691406 Z M 83.863281 28.691406 "/>
<path style=" stroke:none;fill-rule:nonzero;fill:rgb(17.254902%,24.313725%,31.372549%);fill-opacity:1;" d="M 180.964844 28.691406 L 172.136719 28.691406 C 170.917969 28.691406 169.929688 27.703125 169.929688 26.484375 C 169.929688 25.261719 170.917969 24.277344 172.136719 24.277344 L 180.964844 24.277344 C 182.183594 24.277344 183.171875 25.261719 183.171875 26.484375 C 183.171875 27.703125 182.183594 28.691406 180.964844 28.691406 Z M 180.964844 28.691406 "/>
<path style=" stroke:none;fill-rule:nonzero;fill:rgb(90.196078%,90.588235%,90.980392%);fill-opacity:1;" d="M 108.136719 90.484375 C 103.675781 90.484375 99.652344 87.792969 97.945312 83.671875 C 96.234375 79.546875 97.179688 74.800781 100.335938 71.644531 C 103.492188 68.488281 108.238281 67.546875 112.359375 69.253906 C 116.484375 70.960938 119.171875 74.984375 119.171875 79.449219 C 119.164062 85.539062 114.230469 90.476562 108.136719 90.484375 Z M 108.136719 72.828125 C 104.480469 72.828125 101.515625 75.792969 101.515625 79.449219 C 101.515625 83.105469 104.480469 86.070312 108.136719 86.070312 C 111.792969 86.070312 114.757812 83.105469 114.757812 79.449219 C 114.753906 75.792969 111.792969 72.832031 108.136719 72.828125 Z M 108.136719 72.828125 "/>
<path style=" stroke:none;fill-rule:nonzero;fill:rgb(90.196078%,90.588235%,90.980392%);fill-opacity:1;" d="M 125.835938 81.65625 C 124.613281 81.65625 123.617188 80.671875 123.609375 79.449219 C 123.601562 78.863281 123.828125 78.304688 124.242188 77.890625 C 124.652344 77.476562 125.210938 77.242188 125.792969 77.242188 L 125.835938 77.242188 C 127.054688 77.242188 128.042969 78.230469 128.042969 79.449219 C 128.042969 80.667969 127.054688 81.65625 125.835938 81.65625 Z M 125.835938 81.65625 "/>
<path style=" stroke:none;fill-rule:nonzero;fill:rgb(90.196078%,90.588235%,90.980392%);fill-opacity:1;" d="M 125.835938 99.308594 C 124.613281 99.3125 123.617188 98.328125 123.609375 97.101562 C 123.601562 96.519531 123.828125 95.960938 124.242188 95.546875 C 124.652344 95.128906 125.210938 94.898438 125.792969 94.898438 L 125.835938 94.898438 C 127.054688 94.898438 128.042969 95.882812 128.042969 97.101562 C 128.042969 98.324219 127.054688 99.308594 125.835938 99.308594 Z M 125.835938 99.308594 "/>
<path style=" stroke:none;fill-rule:nonzero;fill:rgb(90.196078%,90.588235%,90.980392%);fill-opacity:1;" d="M 139.035156 103.722656 C 138.449219 103.722656 137.886719 103.492188 137.472656 103.078125 C 137.058594 102.664062 136.828125 102.101562 136.828125 101.515625 L 136.828125 75.949219 L 136.179688 76.59375 C 135.316406 77.441406 133.929688 77.433594 133.074219 76.578125 C 132.21875 75.722656 132.214844 74.339844 133.058594 73.472656 L 137.472656 69.058594 C 138.105469 68.429688 139.054688 68.242188 139.878906 68.582031 C 140.703125 68.921875 141.242188 69.726562 141.242188 70.621094 L 141.242188 101.515625 C 141.242188 102.101562 141.007812 102.664062 140.59375 103.078125 C 140.179688 103.492188 139.621094 103.722656 139.035156 103.722656 Z M 139.035156 103.722656 "/>
<path style=" stroke:none;fill-rule:nonzero;fill:rgb(90.196078%,90.588235%,90.980392%);fill-opacity:1;" d="M 156.691406 103.722656 C 156.105469 103.722656 155.542969 103.492188 155.128906 103.078125 C 154.714844 102.664062 154.480469 102.101562 154.484375 101.515625 L 154.484375 75.949219 L 153.835938 76.59375 C 152.972656 77.441406 151.585938 77.433594 150.730469 76.578125 C 149.875 75.722656 149.867188 74.339844 150.714844 73.472656 L 155.128906 69.058594 C 155.761719 68.429688 156.710938 68.242188 157.535156 68.582031 C 158.359375 68.921875 158.894531 69.726562 158.898438 70.621094 L 158.898438 101.515625 C 158.898438 102.101562 158.664062 102.664062 158.25 103.078125 C 157.835938 103.492188 157.273438 103.722656 156.691406 103.722656 Z M 156.691406 103.722656 "/>
<path style=" stroke:none;fill-rule:nonzero;fill:rgb(90.196078%,90.588235%,90.980392%);fill-opacity:1;" d="M 103.722656 103.722656 C 102.90625 103.726562 102.152344 103.273438 101.773438 102.550781 C 101.390625 101.824219 101.4375 100.949219 101.902344 100.273438 L 113.066406 83.914062 C 113.753906 82.910156 115.125 82.648438 116.132812 83.335938 C 117.140625 84.023438 117.398438 85.398438 116.710938 86.402344 L 105.546875 102.761719 C 105.136719 103.363281 104.453125 103.726562 103.722656 103.722656 Z M 103.722656 103.722656 "/>
<path style=" stroke:none;fill-rule:nonzero;fill:rgb(90.196078%,90.588235%,90.980392%);fill-opacity:1;" d="M 163.308594 123.585938 L 92.691406 123.585938 C 90.253906 123.585938 88.277344 121.609375 88.277344 119.171875 C 88.277344 116.734375 90.25 114.757812 92.691406 114.757812 L 163.308594 114.757812 C 165.746094 114.757812 167.722656 116.734375 167.722656 119.171875 C 167.722656 121.609375 165.746094 123.585938 163.308594 123.585938 Z M 163.308594 123.585938 "/>
<path style=" stroke:none;fill-rule:nonzero;fill:rgb(69.019608%,82.745098%,94.117647%);fill-opacity:1;" d="M 176.550781 203.035156 C 176.550781 210.347656 170.625 216.277344 163.308594 216.277344 C 155.996094 216.277344 150.070312 210.347656 150.070312 203.035156 C 150.070312 195.722656 155.996094 189.792969 163.308594 189.792969 C 170.625 189.792969 176.550781 195.722656 176.550781 203.035156 Z M 176.550781 203.035156 "/>
<path style=" stroke:none;fill-rule:nonzero;fill:rgb(90.196078%,90.588235%,90.980392%);fill-opacity:1;" d="M 167.722656 205.242188 L 158.898438 205.242188 C 157.675781 205.242188 156.691406 204.253906 156.691406 203.035156 C 156.691406 201.816406 157.675781 200.828125 158.898438 200.828125 L 167.722656 200.828125 C 168.941406 200.828125 169.929688 201.816406 169.929688 203.035156 C 169.929688 204.253906 168.941406 205.242188 167.722656 205.242188 Z M 167.722656 205.242188 "/>
<path style=" stroke:none;fill-rule:nonzero;fill:rgb(69.019608%,82.745098%,94.117647%);fill-opacity:1;" d="M 105.929688 203.035156 C 105.929688 210.347656 100.003906 216.277344 92.691406 216.277344 C 85.375 216.277344 79.449219 210.347656 79.449219 203.035156 C 79.449219 195.722656 85.375 189.792969 92.691406 189.792969 C 100.003906 189.792969 105.929688 195.722656 105.929688 203.035156 Z M 105.929688 203.035156 "/>
<path style=" stroke:none;fill-rule:nonzero;fill:rgb(90.196078%,90.588235%,90.980392%);fill-opacity:1;" d="M 92.691406 209.65625 C 92.105469 209.65625 91.542969 209.421875 91.128906 209.007812 C 90.714844 208.59375 90.480469 208.035156 90.484375 207.449219 L 90.484375 198.621094 C 90.484375 197.402344 91.46875 196.414062 92.691406 196.414062 C 93.910156 196.414062 94.898438 197.402344 94.898438 198.621094 L 94.898438 207.449219 C 94.898438 208.035156 94.664062 208.59375 94.25 209.007812 C 93.835938 209.421875 93.273438 209.65625 92.691406 209.65625 Z M 92.691406 209.65625 "/>
<path style=" stroke:none;fill-rule:nonzero;fill:rgb(90.196078%,90.588235%,90.980392%);fill-opacity:1;" d="M 119.171875 44.136719 L 136.828125 44.136719 L 136.828125 57.378906 L 119.171875 57.378906 Z M 119.171875 44.136719 "/>
<path style=" stroke:none;fill-rule:nonzero;fill:rgb(90.196078%,90.588235%,90.980392%);fill-opacity:1;" d="M 147.863281 46.34375 C 147.277344 46.34375 146.714844 46.113281 146.300781 45.699219 C 145.886719 45.285156 145.65625 44.722656 145.65625 44.136719 L 145.65625 41.929688 C 145.65625 39.492188 143.679688 37.515625 141.242188 37.515625 C 138.804688 37.515625 136.828125 39.492188 136.828125 41.929688 L 136.828125 44.136719 C 136.828125 45.355469 135.839844 46.34375 134.621094 46.34375 C 133.402344 46.34375 132.414062 45.355469 132.414062 44.136719 L 132.414062 41.929688 C 132.414062 37.054688 136.363281 33.101562 141.242188 33.101562 C 146.117188 33.101562 150.066406 37.054688 150.066406 41.929688 L 150.066406 44.136719 C 150.070312 44.722656 149.835938 45.285156 149.421875 45.699219 C 149.007812 46.113281 148.449219 46.34375 147.863281 46.34375 Z M 147.863281 46.34375 "/>
</g>
</svg>
