<?xml version="1.0" encoding="UTF-8"?>
<svg xmlns="http://www.w3.org/2000/svg" xmlns:xlink="http://www.w3.org/1999/xlink" width="256pt" height="256pt" viewBox="0 0 256 256" version="1.1">
<g id="surface1">
<path style=" stroke:none;fill-rule:nonzero;fill:rgb(99.215686%,45.098039%,41.176471%);fill-opacity:1;" d="M 233.464844 61.898438 L 229.640625 47.179688 C 226.976562 36.929688 221.832031 27.984375 215.019531 20.8125 C 200.390625 5.421875 178.058594 -1.765625 156.050781 3.957031 L 45.179688 32.773438 C 12.921875 41.15625 -6.429688 74.105469 1.957031 106.363281 L 5.78125 121.078125 C 7.214844 126.589844 12.84375 129.894531 18.355469 128.464844 L 56.785156 118.480469 C 62.296875 117.046875 65.601562 111.417969 64.171875 105.90625 L 60.34375 91.183594 L 59.1875 86.742188 C 56.609375 76.824219 62.5625 66.695312 72.480469 64.117188 L 147.472656 44.625 C 157.390625 42.042969 167.519531 47.996094 170.097656 57.914062 L 171.253906 62.355469 L 175.078125 77.078125 C 176.511719 82.589844 182.140625 85.894531 187.652344 84.460938 L 226.078125 74.472656 C 231.589844 73.039062 234.898438 67.410156 233.464844 61.898438 Z M 233.464844 61.898438 "/>
<path style=" stroke:none;fill-rule:nonzero;fill:rgb(89.019608%,20%,28.627451%);fill-opacity:1;" d="M 215.019531 20.8125 C 200.390625 5.421875 178.058594 -1.765625 156.050781 3.957031 L 45.179688 32.773438 C 12.921875 41.15625 -6.429688 74.105469 1.957031 106.363281 L 5.167969 118.71875 L 20.269531 101.601562 C 16.503906 87.105469 24.195312 51.339844 59.984375 42.035156 C 95.78125 32.730469 151.566406 18.230469 161.96875 15.527344 C 169.769531 13.503906 197.8125 8.957031 215.019531 20.8125 Z M 215.019531 20.8125 "/>
<path style=" stroke:none;fill-rule:nonzero;fill:rgb(83.921569%,82.745098%,76.862745%);fill-opacity:1;" d="M 64.171875 105.90625 L 60.34375 91.183594 L 20.269531 101.601562 L 1.957031 106.363281 L 5.78125 121.078125 C 7.214844 126.589844 12.84375 129.894531 18.355469 128.464844 L 36.667969 123.707031 L 56.835938 118.464844 C 62.316406 117.011719 65.597656 111.402344 64.171875 105.90625 Z M 64.171875 105.90625 "/>
<path style=" stroke:none;fill-rule:nonzero;fill:rgb(98.823529%,95.294118%,87.058824%);fill-opacity:1;" d="M 64.171875 105.90625 L 60.34375 91.183594 L 20.269531 101.601562 L 24.097656 116.320312 C 25.527344 121.832031 31.15625 125.136719 36.667969 123.707031 L 56.835938 118.464844 C 62.316406 117.011719 65.597656 111.402344 64.171875 105.90625 Z M 64.171875 105.90625 "/>
<path style=" stroke:none;fill-rule:nonzero;fill:rgb(83.921569%,82.745098%,76.862745%);fill-opacity:1;" d="M 233.464844 61.898438 L 229.640625 47.179688 L 171.253906 62.355469 L 175.078125 77.078125 C 176.511719 82.589844 182.140625 85.894531 187.652344 84.460938 L 226.078125 74.472656 C 231.589844 73.039062 234.898438 67.410156 233.464844 61.898438 Z M 233.464844 61.898438 "/>
<path style=" stroke:none;fill-rule:nonzero;fill:rgb(98.823529%,95.294118%,87.058824%);fill-opacity:1;" d="M 233.464844 61.898438 L 229.640625 47.179688 L 189.566406 57.59375 L 193.390625 72.3125 C 194.824219 77.824219 200.453125 81.128906 205.964844 79.699219 L 226.128906 74.460938 C 231.609375 73.003906 234.890625 67.394531 233.464844 61.898438 Z M 233.464844 61.898438 "/>
<path style=" stroke:none;fill-rule:nonzero;fill:rgb(83.921569%,82.745098%,76.862745%);fill-opacity:1;" d="M 226.214844 241.601562 C 226.214844 245.023438 224.824219 248.125 222.582031 250.367188 C 220.339844 252.613281 217.238281 253.996094 213.816406 253.996094 L 36.660156 253.996094 C 29.816406 253.996094 24.269531 248.449219 24.269531 241.605469 C 24.269531 238.179688 25.65625 235.078125 27.898438 232.839844 C 30.140625 230.59375 33.238281 229.207031 36.660156 229.207031 L 213.816406 229.207031 C 220.660156 229.207031 226.214844 234.757812 226.214844 241.601562 Z M 226.214844 241.601562 "/>
<path style=" stroke:none;fill-rule:nonzero;fill:rgb(98.823529%,95.294118%,87.058824%);fill-opacity:1;" d="M 226.214844 241.601562 C 226.214844 245.023438 224.824219 248.125 222.582031 250.367188 C 220.339844 252.613281 217.238281 253.996094 213.816406 253.996094 L 78.324219 253.996094 C 71.484375 253.996094 65.933594 248.449219 65.933594 241.605469 C 65.933594 238.179688 67.324219 235.078125 69.566406 232.839844 C 71.808594 230.59375 74.90625 229.207031 78.324219 229.207031 L 213.816406 229.207031 C 220.660156 229.207031 226.214844 234.757812 226.214844 241.601562 Z M 226.214844 241.601562 "/>
<path style=" stroke:none;fill-rule:nonzero;fill:rgb(99.215686%,45.098039%,41.176471%);fill-opacity:1;" d="M 146.5625 92.84375 L 146.5625 97 C 146.5625 108.777344 137.015625 118.328125 125.238281 118.328125 C 113.460938 118.328125 103.914062 108.777344 103.914062 97 L 103.914062 92.84375 L 85.058594 92.84375 C 85.058594 113.515625 70.972656 130.894531 51.878906 135.910156 C 45.230469 137.65625 40.535156 143.5625 40.535156 150.433594 L 40.535156 229.210938 L 209.941406 229.210938 L 209.941406 150.433594 C 209.941406 143.5625 205.246094 137.65625 198.601562 135.910156 C 179.503906 130.894531 165.417969 113.515625 165.417969 92.84375 Z M 146.5625 92.84375 "/>
<path style=" stroke:none;fill-rule:nonzero;fill:rgb(89.019608%,20%,28.627451%);fill-opacity:1;" d="M 85.058594 92.847656 L 98.449219 92.847656 C 98.449219 113.519531 94.285156 130.894531 75.191406 135.910156 C 68.546875 137.65625 63.847656 143.566406 63.847656 150.433594 L 63.847656 229.207031 L 40.53125 229.207031 L 40.53125 150.433594 C 40.53125 143.566406 45.230469 137.65625 51.878906 135.910156 C 70.96875 130.894531 85.058594 113.515625 85.058594 92.847656 Z M 85.058594 92.847656 "/>
<path style=" stroke:none;fill-rule:nonzero;fill:rgb(98.823529%,95.294118%,87.058824%);fill-opacity:1;" d="M 94.175781 151.519531 L 83.757812 151.519531 C 79.855469 151.519531 76.6875 148.355469 76.6875 144.453125 C 76.6875 140.546875 79.855469 137.382812 83.757812 137.382812 L 94.175781 137.382812 C 98.078125 137.382812 101.242188 140.546875 101.242188 144.453125 C 101.242188 148.359375 98.078125 151.519531 94.175781 151.519531 Z M 94.175781 151.519531 "/>
<path style=" stroke:none;fill-rule:nonzero;fill:rgb(98.823529%,95.294118%,87.058824%);fill-opacity:1;" d="M 166.722656 151.519531 L 156.304688 151.519531 C 152.402344 151.519531 149.238281 148.355469 149.238281 144.453125 C 149.238281 140.546875 152.402344 137.382812 156.304688 137.382812 L 166.722656 137.382812 C 170.625 137.382812 173.789062 140.546875 173.789062 144.453125 C 173.789062 148.359375 170.625 151.519531 166.722656 151.519531 Z M 166.722656 151.519531 "/>
<path style=" stroke:none;fill-rule:nonzero;fill:rgb(98.823529%,95.294118%,87.058824%);fill-opacity:1;" d="M 130.445312 151.519531 L 120.03125 151.519531 C 116.125 151.519531 112.960938 148.355469 112.960938 144.453125 C 112.960938 140.546875 116.125 137.382812 120.03125 137.382812 L 130.445312 137.382812 C 134.351562 137.382812 137.515625 140.546875 137.515625 144.453125 C 137.515625 148.359375 134.351562 151.519531 130.445312 151.519531 Z M 130.445312 151.519531 "/>
<path style=" stroke:none;fill-rule:nonzero;fill:rgb(98.823529%,95.294118%,87.058824%);fill-opacity:1;" d="M 94.175781 177.273438 L 83.757812 177.273438 C 79.855469 177.273438 76.6875 174.109375 76.6875 170.203125 C 76.6875 166.300781 79.855469 163.136719 83.757812 163.136719 L 94.175781 163.136719 C 98.078125 163.136719 101.242188 166.300781 101.242188 170.203125 C 101.242188 174.109375 98.078125 177.273438 94.175781 177.273438 Z M 94.175781 177.273438 "/>
<path style=" stroke:none;fill-rule:nonzero;fill:rgb(98.823529%,95.294118%,87.058824%);fill-opacity:1;" d="M 166.722656 177.273438 L 156.304688 177.273438 C 152.402344 177.273438 149.238281 174.109375 149.238281 170.203125 C 149.238281 166.300781 152.402344 163.136719 156.304688 163.136719 L 166.722656 163.136719 C 170.625 163.136719 173.789062 166.300781 173.789062 170.203125 C 173.789062 174.109375 170.625 177.273438 166.722656 177.273438 Z M 166.722656 177.273438 "/>
<path style=" stroke:none;fill-rule:nonzero;fill:rgb(98.823529%,95.294118%,87.058824%);fill-opacity:1;" d="M 130.445312 177.273438 L 120.03125 177.273438 C 116.125 177.273438 112.960938 174.109375 112.960938 170.203125 C 112.960938 166.300781 116.125 163.136719 120.03125 163.136719 L 130.445312 163.136719 C 134.351562 163.136719 137.515625 166.300781 137.515625 170.203125 C 137.515625 174.109375 134.351562 177.273438 130.445312 177.273438 Z M 130.445312 177.273438 "/>
<path style=" stroke:none;fill-rule:nonzero;fill:rgb(98.823529%,95.294118%,87.058824%);fill-opacity:1;" d="M 94.175781 203.023438 L 83.757812 203.023438 C 79.855469 203.023438 76.6875 199.859375 76.6875 195.957031 C 76.6875 192.050781 79.855469 188.886719 83.757812 188.886719 L 94.175781 188.886719 C 98.078125 188.886719 101.242188 192.050781 101.242188 195.957031 C 101.242188 199.859375 98.078125 203.023438 94.175781 203.023438 Z M 94.175781 203.023438 "/>
<path style=" stroke:none;fill-rule:nonzero;fill:rgb(98.823529%,95.294118%,87.058824%);fill-opacity:1;" d="M 166.722656 203.023438 L 156.304688 203.023438 C 152.402344 203.023438 149.238281 199.859375 149.238281 195.957031 C 149.238281 192.050781 152.402344 188.886719 156.304688 188.886719 L 166.722656 188.886719 C 170.625 188.886719 173.789062 192.050781 173.789062 195.957031 C 173.789062 199.859375 170.625 203.023438 166.722656 203.023438 Z M 166.722656 203.023438 "/>
<path style=" stroke:none;fill-rule:nonzero;fill:rgb(98.823529%,95.294118%,87.058824%);fill-opacity:1;" d="M 130.445312 203.023438 L 120.03125 203.023438 C 116.125 203.023438 112.960938 199.859375 112.960938 195.957031 C 112.960938 192.050781 116.125 188.886719 120.03125 188.886719 L 130.445312 188.886719 C 134.351562 188.886719 137.515625 192.050781 137.515625 195.957031 C 137.515625 199.859375 134.351562 203.023438 130.445312 203.023438 Z M 130.445312 203.023438 "/>
<path style=" stroke:none;fill-rule:nonzero;fill:rgb(56.078431%,83.137255%,93.72549%);fill-opacity:1;" d="M 216.433594 137.648438 C 215.445312 137.648438 214.457031 137.273438 213.703125 136.515625 C 212.195312 135.007812 212.195312 132.566406 213.703125 131.058594 C 217.402344 127.359375 219.4375 122.445312 219.4375 117.214844 C 219.4375 111.984375 217.402344 107.066406 213.703125 103.367188 C 212.195312 101.859375 212.195312 99.417969 213.703125 97.910156 C 215.210938 96.402344 217.65625 96.402344 219.164062 97.910156 C 224.320312 103.066406 227.15625 109.921875 227.15625 117.214844 C 227.15625 124.507812 224.320312 131.363281 219.164062 136.519531 C 218.40625 137.269531 217.417969 137.648438 216.433594 137.648438 Z M 216.433594 137.648438 "/>
<path style=" stroke:none;fill-rule:nonzero;fill:rgb(56.078431%,83.137255%,93.72549%);fill-opacity:1;" d="M 226.644531 147.863281 C 225.65625 147.863281 224.671875 147.484375 223.917969 146.730469 C 222.410156 145.222656 222.410156 142.78125 223.917969 141.273438 C 237.183594 128.007812 237.183594 106.421875 223.917969 93.152344 C 222.410156 91.644531 222.410156 89.203125 223.917969 87.695312 C 225.421875 86.1875 227.867188 86.1875 229.375 87.695312 C 237.261719 95.578125 241.601562 106.0625 241.601562 117.214844 C 241.601562 128.363281 237.261719 138.847656 229.375 146.734375 C 228.621094 147.484375 227.632812 147.863281 226.644531 147.863281 Z M 226.644531 147.863281 "/>
<path style=" stroke:none;fill-rule:nonzero;fill:rgb(56.078431%,83.137255%,93.72549%);fill-opacity:1;" d="M 236.753906 157.972656 C 235.765625 157.972656 234.777344 157.59375 234.027344 156.839844 C 232.519531 155.332031 232.519531 152.890625 234.027344 151.382812 C 243.152344 142.253906 248.179688 130.121094 248.179688 117.214844 C 248.179688 104.308594 243.152344 92.171875 234.027344 83.042969 C 232.519531 81.535156 232.519531 79.09375 234.027344 77.585938 C 235.53125 76.078125 237.976562 76.078125 239.484375 77.585938 C 250.070312 88.171875 255.898438 102.246094 255.898438 117.214844 C 255.898438 132.183594 250.070312 146.257812 239.484375 156.84375 C 238.730469 157.59375 237.742188 157.972656 236.753906 157.972656 Z M 236.753906 157.972656 "/>
</g>
</svg>
